<?xml version="1.0"?>
<svg xmlns="http://www.w3.org/2000/svg" xmlns:xlink="http://www.w3.org/1999/xlink" xmlns:svgjs="http://svgjs.com/svgjs" version="1.1" width="512" height="512" x="0" y="0" viewBox="0 0 64 64" style="enable-background:new 0 0 512 512" xml:space="preserve" class=""><g><g xmlns="http://www.w3.org/2000/svg"><g><path d="m61.83 55.833c-.73.72-1.73 1.17-2.83 1.17 0 0 0-13-11-13s-11 13-11 13h-16v-4h12v-4c0-4.42 3.58-8 8-8 1.48 0 2.77-.8 3.46-2h10.54s3.38 2.26 5.92 6.35c1.41 2.28 2.08 4.96 2.08 7.65 0 1.1-.45 2.1-1.17 2.83z" fill="#3564f1" data-original="#db4040" style="" class=""/><path d="m42 6.003h-5-5c0-2.76 2.24-5 5-5 1.38 0 2.63.56 3.54 1.46.9.91 1.46 2.16 1.46 3.54z" fill="#bd7211" data-original="#8dc691" style="" class=""/><path d="m42 6.003v6c-5-1-5-6-5-6z" fill="#56453a" data-original="#9b6d4e" style="" class=""/><path d="m37 6.003s0 5 5 6c0 2.21-1.79 4-4 4h-2c-1.1 0-2.1-.45-2.83-1.17-.72-.73-1.17-1.73-1.17-2.83v-6z" fill="#4e3737" data-original="#f4baa6" style="" class=""/><path d="m13.24 55.003c.97.97 2.2 1.63 3.54 1.88-.85 3.51-4.01 6.12-7.78 6.12-4.42 0-8-3.58-8-8 0-2.85 1.49-5.36 3.74-6.77 1.33.56 2.87 1.36 4.34 2.45l-2.2 2.2c-1.17 1.17-1.17 3.07 0 4.24s3.07 1.17 4.24 0z" fill="#4d4d4d" data-original="#4d4d4d" style="" class=""/><path d="m13.24 55.003-2.12 2.12c-1.17 1.17-3.07 1.17-4.24 0s-1.17-3.07 0-4.24l2.2-2.2c1.22.91 2.38 2.02 3.35 3.37.25.35.52.67.81.95z" fill="#808080" data-original="#808080" style="" class=""/><path d="m13.24 55.003c-.29-.28-.56-.6-.81-.95-.97-1.35-2.13-2.46-3.35-3.37-1.47-1.09-3.01-1.89-4.34-2.45-2.13-.91-3.74-1.23-3.74-1.23 4-6 9-5 9-5l11 6v1 4 4h-3c-.42 0-.82-.04-1.22-.12-1.34-.25-2.57-.91-3.54-1.88z" fill="#3564f1" data-original="#db4040" style="" class=""/><path d="m33 49.003v4h-12v-4h5z" fill="#808080" data-original="#808080" style="" class=""/><path d="m44.46 39.003c-.69 1.2-1.98 2-3.46 2h-12l4 8h-7l-4.53-9.04v-.01l.23-3.81s.88-1.14 2.54-1.14h4.76 16v2c0 .73-.2 1.41-.54 2z" fill="#b35d11" data-original="#379b4a" style="" class=""/><path d="m22 31.003-.3 5.14-.23 3.81v.01l-.47 8.04-11-6 4.81-11h4.19z" fill="#3564f1" data-original="#db4040" style="" class=""/><path d="m14.81 31.003h-5.81v-7h8 2.5c1.11 0 2.1.52 2.73 1.32-1.89.72-3.23 2.54-3.23 4.68v1z" fill="#105fdb" data-original="#f08c8e" style="" class=""/><path d="m45 35.003h-16v-4h6.52c1.44 0 2.67-1.03 2.92-2.44l.92-5.05c.33-1.83-1.07-3.51-2.92-3.51-1.42 0-2.64 1-2.92 2.39l-.52 2.61h-4v-2c0-3.87 3.13-7 7-7h2c3.87 0 7 3.13 7 7v10z" fill="#bd6110" data-original="#44b260" style="" class=""/><path d="m63 19.003v2h-18v-2c0-1.1.9-2 2-2h14c1.1 0 2 .9 2 2z" fill="#ffca83" data-original="#ffca83" style="" class=""/><path d="m63 21.003v12h-2-6-10v-10-2z" fill="#fbb03b" data-original="#fbb03b" style="" class=""/><path d="m61 33.003c1.1 0 2 .9 2 2 0 .55-.22 1.05-.59 1.41-.36.37-.86.59-1.41.59h-6v-4z" fill="#808080" data-original="#808080" style="" class=""/><path d="m55 37.003v2h-10.54c.34-.59.54-1.27.54-2v-2-2h10z" fill="#b3b3b3" data-original="#b3b3b3" style="" class=""/><path d="m40.25 57.003h-3.25s0-13 11-13 11 13 11 13h-3.25z" fill="#105fdb" data-original="#f08c8e" style="" class=""/><path d="m40.25 57.003h15.5c-.89 3.45-4.02 6-7.75 6s-6.86-2.55-7.75-6z" fill="#4d4d4d" data-original="#4d4d4d" style="" class=""/><path d="m20 31.003-1.349 6.071c-.38 1.711-1.898 2.929-3.651 2.929h-4.125l-.875 2 11 6 .47-8.04v-.01l.23-3.81.3-5.14z" fill="#383532" data-original="#c63232" style="" class=""/><path d="m45 28.003h18v5h-18z" fill="#ea9626" data-original="#ea9626" style="" class=""/><path d="m33 53.003h-12v4h16s.002-1.769.553-4z" fill="#383532" data-original="#c63232" style="" class=""/><path d="m29 25.003h-5c-.62 0-1.22.11-1.77.32-1.89.72-3.23 2.54-3.23 4.68v1h3 2 5 6.52c1.44 0 2.67-1.03 2.92-2.44l-5.44-3.56z" fill="#342927" data-original="#e09b8d" style="" class=""/><path d="m36.44 20.003c-1.42 0-2.64 1-2.92 2.39l-.52 2.61 5.44 3.56.92-5.05c.33-1.831-1.07-3.51-2.92-3.51z" fill="#bd7211" data-original="#8dc691" style="" class=""/></g><g fill="#202020"><path d="m61 16.003h-14c-1.284 0-2.374.815-2.801 1.952-.775-.95-1.766-1.714-2.895-2.229.985-.875 1.62-2.122 1.676-3.526v-.001c0-.001 0-.002 0-.003.003-.065.02-6.193.02-6.193 0-1.598-.621-3.104-1.757-4.251-1.139-1.128-2.646-1.749-4.243-1.749-2.967 0-5.431 2.167-5.91 5h-3.09c-.553 0-1 .447-1 1s.447 1 1 1h3v5c0 2.878 1.62 3.66 1.693 3.724-2.764 1.262-4.693 4.045-4.693 7.276v1h-4c-.501 0-.984.081-1.455.198-.821-.765-1.896-1.198-3.045-1.198h-.086l2.293-2.293c.188-.188.293-.441.293-.707v-4c0-.553-.447-1-1-1s-1 .447-1 1v3.586l-3.414 3.414h-7.586c-.553 0-1 .447-1 1v7c0 .553.447 1 1 1h4.281l-3.91 8.942c-1.72-.054-5.813.417-9.203 5.503-.185.277-.219.629-.092.938.128.308.401.532.729.598.01.002.789.164 1.947.559-1.74 1.673-2.752 3.975-2.752 6.46 0 4.963 4.037 9 9 9 3.868 0 7.241-2.437 8.494-6.025.168.012.334.025.506.025h21.511c1.259 3.569 4.645 6 8.489 6s7.23-2.431 8.489-6h2.511c1.324 0 2.579-.519 3.542-1.469.94-.953 1.458-2.207 1.458-3.531 0-2.99-.771-5.817-2.23-8.178-2.106-3.391-4.736-5.559-5.77-6.334v-.488h5c.811 0 1.565-.317 2.106-.873.577-.56.894-1.315.894-2.127 0-.462-.114-.895-.301-1.287.185-.181.301-.433.301-.713v-14c0-1.654-1.346-3-3-3zm-15 16v-10h16v10h-1zm-5 8h-12c-.719 0-1.318.561-.895 1.447l3.276 6.553h-4.765l-4.134-8.25.188-3.172c.26-.226.787-.578 1.569-.578h19.761v1c0 .527-.137 1.032-.406 1.501-.533.925-1.527 1.499-2.594 1.499zm-13-8v2h-3.76c-.531 0-1.006.1-1.431.247l.133-2.247zm-5.75 11.748 2.131 4.252h-2.379zm-.25 6.252h4 6v2h-10zm10.564-4.108-1.946-3.893h4.737c-1.253 1.013-2.222 2.356-2.791 3.893zm13.436-8.892v-2-1h8v4h-8.113c.068-.33.113-.664.113-1zm1-19h14c.552 0 1 .448 1 1v1h-16v-1c0-.552.448-1 1-1zm-6-7.36c-1.942-.851-2.629-2.547-2.868-3.64h2.868zm-4-8.64c1.066 0 2.073.416 2.829 1.164.512.517.853 1.151 1.029 1.836h-7.717c.448-1.721 2-3 3.859-3zm-3.118 12.127c-.569-.576-.882-1.332-.882-2.127v-5h3.089c.314 1.959 1.569 4.699 4.808 5.741-.332 1.295-1.499 2.259-2.896 2.259h-2c-.796 0-1.552-.314-2.119-.873zm-3.882 8.873c0-3.309 2.691-6 6-6h2c3.309 0 6 2.691 6 6v11h-14v-2h5.52c1.926 0 3.567-1.371 3.903-3.256.001-.004.002-.007.002-.011l.92-5.046c.21-1.167-.104-2.356-.863-3.265-.756-.904-1.864-1.423-3.041-1.423-1.888 0-3.528 1.343-3.901 3.194l-.359 1.806h-2.181zm8.377.33-.65 3.567-3.615-2.365.388-1.945c.186-.919 1.001-1.587 1.94-1.587.583 0 1.132.257 1.507.705.377.452.534 1.046.43 1.625zm-5.676 2.67 4.544 2.973c-.335.617-.986 1.027-1.726 1.027h-10.519v-1c0-.553-.447-1-1-1s-1 .447-1 1v1h-3c0-1.677 1.016-3.147 2.587-3.746.44-.169.916-.254 1.413-.254zm-22.701-1h9.5c.324 0 .632.073.922.189-1.504 1.112-2.422 2.865-2.422 4.811h-3.169c-.006 0-.012 0-.019 0h-4.812zm9 7h1.939l-.468 7.889c0 .003.001.005.001.008 0 .002-.001.003-.001.004l-.378 6.465-8.811-4.806 4.18-9.561h3.538zm-10 30c-3.859 0-7-3.141-7-7 0-2.25 1.063-4.31 2.852-5.621.947.427 1.846.905 2.674 1.441l-1.353 1.353c-1.559 1.559-1.559 4.095 0 5.653.754.755 1.759 1.171 2.827 1.171s2.073-.416 2.827-1.171l1.465-1.464c.673.523 1.414.935 2.207 1.209-1.044 2.646-3.586 4.429-6.499 4.429zm.154-9.98c.955.795 2.448 2.479 2.716 2.936l-1.457 1.456c-.754.756-2.072.756-2.826 0-.377-.377-.585-.879-.585-1.413 0-.533.208-1.035.585-1.412zm7.81 3.876c-1.136-.212-2.179-.767-3.028-1.615-.238-.23-.472-.504-.693-.814-.954-1.328-2.152-2.535-3.566-3.591-1.352-1.002-2.882-1.866-4.543-2.566-.944-.403-1.791-.695-2.455-.899 3.029-3.687 6.291-3.536 6.998-3.447l10.323 5.63v7.406h-2c-.351 0-.686-.033-1.036-.104zm21.088.104c.247-2.897 1.676-11 9.948-11s9.702 8.103 9.948 11zm9.948 6c-2.742 0-5.175-1.596-6.317-4h12.633c-1.141 2.404-3.574 4-6.316 4zm12.069-16.124c1.263 2.042 1.931 4.506 1.931 7.124 0 .795-.313 1.551-.872 2.117-.345.34-.758.576-1.201.721-.325-3.352-2.11-12.838-11.927-12.838-9.975 0-11.659 9.798-11.942 13h-14.058v-2h11c.553 0 1-.447 1-1v-4c0-3.859 3.141-7 7-7 1.578 0 3.057-.755 3.992-2h9.686c.777.573 3.375 2.628 5.391 5.876zm1.624-10.164c-.18.185-.426.288-.693.288h-5v-2h5c.552 0 1 .448 1 1 0 .267-.102.513-.307.712z" fill="#202020" data-original="#202020" style="" class=""/><path d="m48 46.713c-3.646 0-6.281 2.241-7.423 6.31-.149.532.161 1.084.692 1.233.587.136 1.109-.251 1.233-.692.902-3.219 2.752-4.851 5.497-4.851.553 0 1-.447 1-1s-.446-1-.999-1z" fill="#202020" data-original="#202020" style="" class=""/></g></g></g></svg>
