<?xml version="1.0"?>
<svg xmlns="http://www.w3.org/2000/svg" xmlns:xlink="http://www.w3.org/1999/xlink" xmlns:svgjs="http://svgjs.com/svgjs" version="1.1" width="512" height="512" x="0" y="0" viewBox="0 0 64 64" style="enable-background:new 0 0 512 512" xml:space="preserve" class=""><g><path xmlns="http://www.w3.org/2000/svg" d="m49 41v12h-22l-6-12z" fill="#5e3011" data-original="#5e3011" style=""/><path xmlns="http://www.w3.org/2000/svg" d="m45 48v5h-18l-4-8h19a3 3 0 0 1 3 3z" fill="#844215" data-original="#844215" style=""/><circle xmlns="http://www.w3.org/2000/svg" cx="10" cy="53" fill="#844215" r="9" data-original="#844215" style=""/><path xmlns="http://www.w3.org/2000/svg" d="m37 35a6.009 6.009 0 0 1 -6 6h-12a6 6 0 0 1 -5.89-4.86 6.12 6.12 0 0 1 -.11-1.14v-5h19a5.056 5.056 0 0 1 .68.05 5 5 0 0 1 4.32 4.95z" fill="#af102f" data-original="#af102f" style=""/><path xmlns="http://www.w3.org/2000/svg" d="m64 2v7h-17l4.32-5.04 1.68-1.96z" fill="#21409a" data-original="#21409a" style=""/><path xmlns="http://www.w3.org/2000/svg" d="m35 6h7a0 0 0 0 1 0 0v10a0 0 0 0 1 0 0h-1a6 6 0 0 1 -6-6v-4a0 0 0 0 1 0 0z" fill="#564d44" data-original="#fdb25a" style="" class=""/><path xmlns="http://www.w3.org/2000/svg" d="m49 29v6h-10v-19h8z" fill="#21409a" data-original="#21409a" style=""/><path xmlns="http://www.w3.org/2000/svg" d="m49 29v6h-5v-19h3z" fill="#262262" data-original="#262262" style="" class=""/><path xmlns="http://www.w3.org/2000/svg" d="m49 28h15v17h-15z" fill="#af102f" data-original="#af102f" style=""/><path xmlns="http://www.w3.org/2000/svg" d="m32.68 30.05a14.81 14.81 0 0 1 -2.44 1.95c-4.55 2.95-10.61 3.86-15.09 4.08-.73.04-1.41.05-2.04.06a6.12 6.12 0 0 1 -.11-1.14v-5h19a5.056 5.056 0 0 1 .68.05z" fill="#f2334f" data-original="#f2334f" style="" class=""/><path xmlns="http://www.w3.org/2000/svg" d="m13 27v5l-8 2v-9l5.43 1.36z" fill="#5e3011" data-original="#5e3011" style=""/><path xmlns="http://www.w3.org/2000/svg" d="m7 27.562v3.877l4-1v-1.877z" fill="#5e3011" data-original="#5e3011" style=""/><path xmlns="http://www.w3.org/2000/svg" d="m64 2v3.38a101.4 101.4 0 0 1 -10.4-1.01c-.81-.13-1.57-.27-2.28-.41l1.68-1.96z" fill="#385bb2" data-original="#385bb2" style=""/><path xmlns="http://www.w3.org/2000/svg" d="m10.43 26.36a8.958 8.958 0 0 1 -3.02 1.3c-.13.04-.27.07-.41.1a11.538 11.538 0 0 1 -2 .23v-2.99z" fill="#773f19" data-original="#773f19" style="" class=""/><g xmlns="http://www.w3.org/2000/svg" fill="#082944"><path d="m59 35h-3a1 1 0 0 1 0-2h3a1 1 0 0 1 0 2z" fill="#082944" data-original="#082944" style="" class=""/><path d="m59 40h-3a1 1 0 0 1 0-2h3a1 1 0 0 1 0 2z" fill="#082944" data-original="#082944" style="" class=""/><path d="m20 35h-2a1 1 0 0 1 0-2h2a1 1 0 0 1 0 2z" fill="#082944" data-original="#082944" style="" class=""/><path d="m10 63a10 10 0 1 1 10-10 10.012 10.012 0 0 1 -10 10zm0-18a8 8 0 1 0 8 8 8.009 8.009 0 0 0 -8-8z" fill="#082944" data-original="#082944" style="" class=""/><path d="m5 35a1 1 0 0 1 -1-1v-9a1 1 0 0 1 1.242-.97l8 2a1 1 0 0 1 .758.97v5a1 1 0 0 1 -.758.97l-8 2a.974.974 0 0 1 -.242.03zm1-8.719v6.438l6-1.5v-3.438z" fill="#082944" data-original="#082944" style="" class=""/><path d="m13 28a1 1 0 0 1 -.831-1.555l4-6a1 1 0 0 1 .831-.445h2a1 1 0 0 1 0 2h-1.465l-3.7 5.555a1 1 0 0 1 -.835.445z" fill="#082944" data-original="#082944" style="" class=""/><path d="m31 42h-12a7.008 7.008 0 0 1 -7-7v-5a1 1 0 0 1 1-1h5a1 1 0 0 1 0 2h-4v4a5.006 5.006 0 0 0 5 5h12a5.006 5.006 0 0 0 5-5 4 4 0 0 0 -4-4h-10a1 1 0 0 1 0-2h10a6.007 6.007 0 0 1 6 6 7.008 7.008 0 0 1 -7 7z" fill="#082944" data-original="#082944" style="" class=""/><path d="m10 54a1 1 0 0 1 -.907-1.419l6-13a1 1 0 0 1 1.816.838l-6 13a1 1 0 0 1 -.909.581z" fill="#082944" data-original="#082944" style="" class=""/><path d="m41 42h-12a1 1 0 0 1 0-2h12a1 1 0 0 1 0 2z" fill="#082944" data-original="#082944" style="" class=""/><path d="m49 42h-4a1 1 0 0 1 0-2h3v-4h-11a1 1 0 0 1 0-2h12a1 1 0 0 1 1 1v6a1 1 0 0 1 -1 1z" fill="#082944" data-original="#082944" style="" class=""/><path d="m49 54h-22a1 1 0 0 1 -.895-.553l-6-12 1.789-.895 5.724 11.448h20.382v-13h2v14a1 1 0 0 1 -1 1z" fill="#082944" data-original="#082944" style="" class=""/><path d="m63 29h-2a1 1 0 0 1 0-2h2a1 1 0 0 1 0 2z" fill="#082944" data-original="#082944" style="" class=""/><path d="m49 36a1 1 0 0 1 -1-1v-7a1 1 0 0 1 1-1h8a1 1 0 0 1 0 2h-7v6a1 1 0 0 1 -1 1z" fill="#082944" data-original="#082944" style="" class=""/><path d="m63 10h-16a1 1 0 0 1 -.759-1.65l6-7a1 1 0 0 1 .759-.35h10a1 1 0 0 1 0 2h-9.54l-4.286 5h13.826a1 1 0 0 1 0 2z" fill="#082944" data-original="#082944" style="" class=""/><path d="m53 9h2v19h-2z" fill="#082944" data-original="#082944" style="" class=""/><path d="m63 46h-14a1 1 0 0 1 0-2h14a1 1 0 0 1 0 2z" fill="#082944" data-original="#082944" style="" class=""/><path d="m42 17h-1a7.008 7.008 0 0 1 -7-7v-4a1 1 0 0 1 1-1h7a1 1 0 0 1 1 1v10a1 1 0 0 1 -1 1zm-6-10v3a5.006 5.006 0 0 0 5 5v-8z" fill="#082944" data-original="#082944" style="" class=""/><path d="m35.105 53.447-9-18a1 1 0 0 1 .895-1.447h11v-18h2v19a1 1 0 0 1 -1 1h-10.382l8.276 16.553z" fill="#082944" data-original="#082944" style="" class=""/><path d="m49 30a1 1 0 0 1 -.987-.848l-1.871-12.152h-6.653l-6.7 8.614a1 1 0 0 1 -1.285.254l-6.77-3.868h-1.734a1 1 0 0 1 0-2h2a1 1 0 0 1 .5.132l6.243 3.568 6.468-8.315a1 1 0 0 1 .789-.385h8a1 1 0 0 1 .988.848l2 13a1 1 0 0 1 -.836 1.141 1.033 1.033 0 0 1 -.152.011z" fill="#082944" data-original="#082944" style="" class=""/><path d="m57 6h-1a1 1 0 0 1 0-2h1a1 1 0 0 1 0 2z" fill="#082944" data-original="#082944" style="" class=""/><path d="m61 6h-1a1 1 0 0 1 0-2h1a1 1 0 0 1 0 2z" fill="#082944" data-original="#082944" style="" class=""/></g></g></svg>
