<?xml version="1.0"?>
<svg xmlns="http://www.w3.org/2000/svg" xmlns:xlink="http://www.w3.org/1999/xlink" xmlns:svgjs="http://svgjs.com/svgjs" version="1.1" width="512" height="512" x="0" y="0" viewBox="0 0 64 64" style="enable-background:new 0 0 512 512" xml:space="preserve" class=""><g><g xmlns="http://www.w3.org/2000/svg" id="_09-took_took" data-name="09-took took"><path d="m63 12h-62a7.989 7.989 0 0 1 8-8h46a8 8 0 0 1 8 8z" fill="#f96900" data-original="#ffb844" style="" class=""/><path d="m61 47.69a10.766 10.766 0 0 1 1.72 3.84 2.012 2.012 0 0 1 -1.95 2.47h-2.77a6 6 0 0 0 -12 0h-2.77a2.008 2.008 0 0 1 -2-2.01 1.8 1.8 0 0 1 .05-.46 10.993 10.993 0 0 1 19.72-3.84z" fill="#50b6f4" data-original="#50b6f4" style="" class=""/><path d="m61 37v10.69a10.993 10.993 0 0 0 -19.72 3.84 1.8 1.8 0 0 0 -.05.46l-.23.01h-10v-15z" fill="#f96900" data-original="#ffb844" style="" class=""/><path d="m61 33v4h-30v-4h15 7z" fill="#ff7170" data-original="#ff7170" style="" class=""/><path d="m61 12v21h-8l1.77-5.32a1.014 1.014 0 0 1 .95-.68h1.28a2.015 2.015 0 0 0 2-2 2.006 2.006 0 0 0 -2-2h-3.53a4.02 4.02 0 0 0 -3.58 2.21l-3.89 7.79h-15v-21z" fill="#fafcff" data-original="#fafcff" style="" class=""/><path d="m57 23a2.006 2.006 0 0 1 2 2 2.015 2.015 0 0 1 -2 2h-1.28a1.014 1.014 0 0 0 -.95.68l-1.77 5.32h-7l3.89-7.79a4.02 4.02 0 0 1 3.58-2.21z" fill="#50b6f4" data-original="#50b6f4" style="" class=""/><path d="m52 48a6 6 0 1 1 -6 6 6 6 0 0 1 6-6zm2 6a2 2 0 1 0 -2 2 2.006 2.006 0 0 0 2-2z" fill="#414952" data-original="#414952" style="" class=""/><circle cx="52" cy="54" fill="#1e2328" r="2" data-original="#4a9bf6" style="" class=""/><path d="m52 60h-46a5 5 0 0 0 3-9l-.08-.02 1.08-3.98h1l.1-.07 3.9 5.07h26l.23-.01a2.008 2.008 0 0 0 2 2.01h2.77a6 6 0 0 0 6 6z" fill="#fafcff" data-original="#fafcff" style="" class=""/><path d="m31 40v12h-13l-3.86-6h5.86v-2a4 4 0 0 1 4-4z" fill="#636978" data-original="#636978" style="" class=""/><path d="m31 37v3h-7a4 4 0 0 0 -4 4v-7a2.006 2.006 0 0 1 2-2h3a2.006 2.006 0 0 0 2-2v-5a2.006 2.006 0 0 1 2-2h2z" fill="#50b6f4" data-original="#50b6f4" style="" class=""/><path d="m31 12v14h-2a2.006 2.006 0 0 0 -2 2v5a2.006 2.006 0 0 1 -2 2h-3a2.006 2.006 0 0 0 -2 2v6l-8.14-3.7.14-.3v-9h4.5a1.5 1.5 0 0 0 0-3h-6l4.5-15z" fill="#fafcff" data-original="#fafcff" style="" class=""/><path d="m20 44v2h-5.86l-5.14-8 2.86 1.3 8.14 3.7z" fill="#ff7170" data-original="#ff7170" style="" class=""/><path d="m14.14 46 3.86 6h-3l-3.9-5.07-5.32-6.92-.78-1.01v-7l6-20h4l-4.5 15-1.5 5v6z" fill="#f96900" data-original="#ffb844" style="" class=""/><path d="m16.5 27a1.5 1.5 0 0 1 0 3h-4.5v9l-.14.3-2.86-1.3v-6l1.5-5z" fill="#555a66" data-original="#555a66" style="" class=""/><path d="m5.78 40.01 5.32 6.92-.1.07h-7.42a2.583 2.583 0 0 1 -2.4-3.53 5.166 5.166 0 0 1 4.6-3.46z" fill="#ff7170" data-original="#ff7170" style="" class=""/><path d="m10 47-1.08 3.98-.8 2.92a1.553 1.553 0 0 1 -1.53 1.1 1.487 1.487 0 0 1 -1.54-1.81l1-3.17.95-3.02z" fill="#dce1eb" data-original="#dce1eb" style="" class=""/><path d="m11 55a5 5 0 1 1 -5-5l.05.02-1 3.17a1.487 1.487 0 0 0 1.54 1.81 1.553 1.553 0 0 0 1.53-1.1l.8-2.92.08.02a5 5 0 0 1 2 4z" fill="#414952" data-original="#414952" style="" class=""/><path d="m9 8h46a7.989 7.989 0 0 1 6.922 4h1.078a8 8 0 0 0 -8-8h-46a7.989 7.989 0 0 0 -8 8h1.079a8.133 8.133 0 0 1 1.261-1.66 8.014 8.014 0 0 1 5.66-2.34z" fill="#ffbc54" data-original="#ffce54" style="" class=""/><path d="m7 32h2v6h-2z" fill="#a75e00" data-original="#fe792c" style="" class=""/><path d="m11.623 15.282-4.623 16.718h2l1.5-5 4.5-15h-4l-.6 2h.264a1 1 0 0 1 .959 1.282z" fill="#d55d05" data-original="#ff942c" style="" class=""/><path d="m18 52-3.86-6-5.14-8h-2l7.914 11.431a.994.994 0 0 1 -.7 1.551l.786 1.018z" fill="#d55d05" data-original="#ff942c" style="" class=""/><path d="m52.544 26.368-1.088 3.264a2 2 0 0 1 -1.898 1.368h-2.558l-1 2h7l1.77-5.32a1.014 1.014 0 0 1 .95-.68h1.28a2.015 2.015 0 0 0 2-2h-4.558a2 2 0 0 0 -1.898 1.368z" fill="#1e2328" data-original="#4a9bf6" style="" class=""/><path d="m30 28a1 1 0 0 0 -1 1v5a3 3 0 0 1 -3 3h-3a3 3 0 0 0 -3 3v4a4 4 0 0 1 4-4h7v-12z" fill="#1e2328" data-original="#4a9bf6" style="" class=""/><path d="m15.406 43.109-2.1-3.152-1.446-.657-2.86-1.3 5.14 8h5.86v-2h-2.93a2 2 0 0 1 -1.664-.891z" fill="#f07932" data-original="#f03332" style="" class=""/><path d="m34 33a2 2 0 0 0 2 2h20a2 2 0 0 0 2-2h3v4h-30v-4z" fill="#f07932" data-original="#f03332" style="" class=""/><path d="m28 40v7a2 2 0 0 1 -2 2h-5.868a2 2 0 0 1 -1.715-.971l-1.217-2.029h-3.06l3.86 6h13v-12z" fill="#555a66" data-original="#555a66" style="" class=""/><path d="m62.727 51.559a10.775 10.775 0 0 0 -.367-1.239l-.515.258a4.012 4.012 0 0 1 -1.789.422 1.024 1.024 0 0 1 -.908-.586 7.995 7.995 0 0 0 -14.3 0 1.024 1.024 0 0 1 -.908.586 4.012 4.012 0 0 1 -1.789-.422l-.513-.257a10.669 10.669 0 0 0 -.362 1.209 1.8 1.8 0 0 0 -.05.46 2.008 2.008 0 0 0 2 2.01h2.774a6 6 0 0 1 12 0h2.77a2.005 2.005 0 0 0 1.957-2.441z" fill="#1e2328" data-original="#4a9bf6" style="" class=""/><path d="m52 40a13.288 13.288 0 0 0 -12.18 7.823 1.984 1.984 0 0 1 -1.815 1.177h-1.38a2 2 0 0 1 -2-2v-10h-3.625v15h10l.23-.01a1.8 1.8 0 0 1 .05-.46 10.993 10.993 0 0 1 19.72-3.84v-4.222a13.325 13.325 0 0 0 -9-3.468z" fill="#d55d05" data-original="#ff942c" style="" class=""/><path d="m5.78 40.01a4.75 4.75 0 0 0 -2.254.647l2.174 2.718a1 1 0 0 1 -.781 1.625h-3.847a2.584 2.584 0 0 0 2.508 2h7.42l.1-.07z" fill="#f07932" data-original="#f03332" style="" class=""/><path d="m7 47-.315 1h.928a1 1 0 0 1 .948 1.316l-1.89 5.671a1.537 1.537 0 0 0 1.449-1.087l.8-2.92 1.08-3.98z" fill="#afb4c8" data-original="#afb4c8" style="" class=""/><path d="m52 48a6 6 0 1 0 6 6 6 6 0 0 0 -6-6zm0 11a5 5 0 1 1 5-5 5 5 0 0 1 -5 5z" fill="#23272b" data-original="#23272b" style="" class=""/><path d="m52 51a3 3 0 1 0 3 3 3 3 0 0 0 -3-3zm0 5a2 2 0 1 1 2-2 2.006 2.006 0 0 1 -2 2z" fill="#23272b" data-original="#23272b" style="" class=""/><path d="m7.888 54.368a2 2 0 1 1 -2.847-1.113c0-.022 0-.043.009-.065l.356-1.13a3.025 3.025 0 1 0 2.924 1.072l-.21.768a1.342 1.342 0 0 1 -.232.468z" fill="#23272b" data-original="#23272b" style="" class=""/><path d="m4 55a2 2 0 1 0 3.888-.632 1.619 1.619 0 0 1 -1.298.632 1.488 1.488 0 0 1 -1.549-1.745 1.992 1.992 0 0 0 -1.041 1.745z" fill="#1e2328" data-original="#4a9bf6" style="" class=""/><rect fill="#ef5b13" height="4" rx="2" width="18" x="18" y="4" data-original="#ffdf64" style="" class=""/><rect fill="#ef5b13" height="4" rx="2" width="8" x="39" y="4" data-original="#ffdf64" style="" class=""/><rect fill="#ff9191" height="2" rx="1" width="9" x="38" y="33" data-original="#ff9191" style="" class=""/><rect fill="#ff9191" height="2" rx="1" width="3" x="49" y="33" data-original="#ff9191" style="" class=""/><g fill="#f6fafd"><ellipse cx="55.684" cy="46.695" rx="1.642" ry="2.286" transform="matrix(.707 -.707 .707 .707 -16.706 53.076)" fill="#f6fafd" data-original="#f6fafd" style="" class=""/><ellipse cx="53.684" cy="6.695" rx="1.642" ry="2.286" transform="matrix(.707 -.707 .707 .707 11.001 39.936)" fill="#f6fafd" data-original="#f6fafd" style="" class=""/><ellipse cx="51.682" cy="45.708" rx=".825" ry="1.148" transform="matrix(.707 -.707 .707 .707 -17.182 49.956)" fill="#f6fafd" data-original="#f6fafd" style="" class=""/><ellipse cx="48.682" cy="6.708" rx=".825" ry="1.148" transform="matrix(.707 -.707 .707 .707 9.525 36.401)" fill="#f6fafd" data-original="#f6fafd" style="" class=""/><ellipse cx="3.427" cy="43.208" rx=".413" ry=".574" transform="matrix(.707 -.707 .707 .707 -29.559 15.09)" fill="#f6fafd" data-original="#f6fafd" style="" class=""/></g><rect fill="#ff9191" height="1.953" rx=".977" width="3" x="53.102" y="33.031" data-original="#ff9191" style="" class=""/><path d="m52 42a11.937 11.937 0 0 0 -11.7 9.309 3.01 3.01 0 0 0 2.928 3.691h1.852a6.98 6.98 0 0 0 2.03 4h-36.65a5.977 5.977 0 0 0 -.4-8.412l.677-2.489 3.471 4.511a1 1 0 0 0 .792.39h24v-2h-7v-13h2v-2h-2v-2h28v2h-20v2h20v6h2v-27h-2v15h-5.612l1.333-4h1.279a3 3 0 0 0 0-6h-3.528a4.972 4.972 0 0 0 -4.472 2.764l-3.618 7.236h-13.382v-19h28v2h2v-2h1a1 1 0 0 0 1-1 9.011 9.011 0 0 0 -9-9h-42v2h42a7.011 7.011 0 0 1 6.929 6h-59.858a7.011 7.011 0 0 1 6.929-6h2v-2h-2a9.011 9.011 0 0 0 -9 9 1 1 0 0 0 1 1h8.656l-5.614 18.713a1 1 0 0 0 -.042.287v7a1 1 0 0 0 .05.3 6.416 6.416 0 0 0 -3.8 3.8 3.534 3.534 0 0 0 -.25 1.32 3.584 3.584 0 0 0 3.58 3.58h2.056l-.328 1.043a5.987 5.987 0 0 0 -3.768 9.957h-.54v2h58v-2h-2.11a6.98 6.98 0 0 0 2.03-4h1.852a3.01 3.01 0 0 0 2.928-3.691 11.937 11.937 0 0 0 -11.7-9.309zm-1.211-16.342a2.982 2.982 0 0 1 2.683-1.658h3.528a1 1 0 0 1 0 2h-1.279a2 2 0 0 0 -1.9 1.367l-1.542 4.633h-4.661zm-31.789 18.342v1h-4.311l-3.012-4.685 7.323 3.329zm1 3a1 1 0 0 0 1-1v-2a3 3 0 0 1 3-3h6v10h-11.454l-2.571-4zm1-6.974v-3.026a1 1 0 0 1 1-1h3a3 3 0 0 0 3-3v-5a1 1 0 0 1 1-1h1v12h-6a4.948 4.948 0 0 0 -3 1.026zm9-15.026h-1a3 3 0 0 0 -3 3v5a1 1 0 0 1 -1 1h-3a3 3 0 0 0 -3 3v4.447l-9-4.091v-5.209l1.244-4.147h5.256a.5.5 0 0 1 0 1h-4.5a1 1 0 0 0 -1 1v6h2v-5h3.5a2.5 2.5 0 0 0 0-5h-4.656l3.9-13h14.256zm-24 7.147 5.744-19.147h1.912l-5.614 18.713a1 1 0 0 0 -.042.287v6a1 1 0 0 0 .159.541l8.009 12.459h-.676l-9.492-12.34zm-4 12.273a1.553 1.553 0 0 1 .108-.577 4.218 4.218 0 0 1 3.217-2.78l3.798 4.937h-5.543a1.582 1.582 0 0 1 -1.58-1.58zm6.691 3.58-1.533 5.635c-.1.37-.823.469-1.076.138a.348.348 0 0 1 -.082-.28l1.733-5.493zm-6.691 7a4 4 0 0 1 2.608-3.736l-.525 1.665a2.352 2.352 0 0 0 .41 2.058 2.637 2.637 0 0 0 2.092 1.013 2.563 2.563 0 0 0 2.5-1.839l.328-1.2a3.953 3.953 0 0 1 .587 2.039 4 4 0 0 1 -8 0zm50 4a5 5 0 1 1 5-5 5.006 5.006 0 0 1 -5 5zm9.551-6.376a.98.98 0 0 1 -.779.376h-1.852a6.991 6.991 0 0 0 -13.84 0h-1.852a.98.98 0 0 1 -.779-.376 1.021 1.021 0 0 1 -.2-.868 10 10 0 0 1 19.5 0 1.023 1.023 0 0 1 -.198.868z" fill="#000000" data-original="#000000" style="" class=""/><path d="m36 36h2v2h-2z" fill="#000000" data-original="#000000" style="" class=""/><path d="m52 51a3 3 0 1 0 3 3 3 3 0 0 0 -3-3zm0 4a1 1 0 1 1 1-1 1 1 0 0 1 -1 1z" fill="#000000" data-original="#000000" style="" class=""/><path d="m61 59h2v2h-2z" fill="#000000" data-original="#000000" style="" class=""/></g></g></svg>
