<?xml version="1.0"?>
<svg xmlns="http://www.w3.org/2000/svg" xmlns:xlink="http://www.w3.org/1999/xlink" xmlns:svgjs="http://svgjs.com/svgjs" version="1.1" width="512" height="512" x="0" y="0" viewBox="0 0 60 46" style="enable-background:new 0 0 512 512" xml:space="preserve" class=""><g><g xmlns="http://www.w3.org/2000/svg" id="026---Tuk-Tuk" fill="none"><g id="Layer_3" transform="translate(1 1)"><circle id="Oval" cx="54" cy="40" fill="#313436" r="4" data-original="#7f8e94" style="" class=""/><path id="Shape" d="m54 36c-.5146869.0021442-1.0240797.1040228-1.5.3 1.5106493.6093694 2.4998715 2.0750763 2.4998715 3.704s-.9892222 3.0946306-2.4998715 3.704c1.4960688.6053048 3.209337.2522552 4.3442174-.8952038 1.1348805-1.147459 1.4690246-2.8645145.8472667-4.3538207-.621758-1.4893061-2.0776019-2.4590745-3.6914841-2.4589755z" fill="#2f3436" data-original="#545c60" style="" class=""/><path id="Shape" d="m16 40c0 2.209139-1.790861 4-4 4s-4-1.790861-4-4 1.790861-4 4-4c1.0617621-.002932 2.0808821.4175538 2.8316642 1.1683358.750782.7507821 1.1712678 1.7699021 1.1683358 2.8316642z" fill="#313436" data-original="#7f8e94" style="" class=""/><path id="Shape" d="m12 36c-.5146869.0021442-1.0240797.1040228-1.5.3 1.506954.6132098 2.4923611 2.0780591 2.4923611 3.705s-.9854071 3.0917902-2.4923611 3.705c1.4957173.6028364 3.2071495.2485455 4.3406025-.8985668 1.1334529-1.1471122 1.4672182-2.8626655.8465086-4.3510545-.6207095-1.488389-2.0744802-2.4584781-3.6871111-2.4603787z" fill="#2f3436" data-original="#545c60" style="" class=""/><path id="Shape" d="m58 31c0 .5522847-.4477153 1-1 1h-7v-6h3c.6874699.0006334 1.3677324.1400872 2 .41 1.8195396.8023036 2.9954419 2.6014341 3 4.59z" fill="#fec108" data-original="#fec108" style="" class=""/><path id="Shape" d="m50 22v18c-.0032948 1.1032019-.8967981 1.9967052-2 2h-4v-20z" fill="#ff3a3a" data-original="#ffeb3a" style="" class=""/><path id="Shape" d="m47 22v18c-.0032948 1.1032019-.8967981 1.9967052-2 2h3c1.1032019-.0032948 1.9967052-.8967981 2-2v-18z" fill="#fd7f34" data-original="#fdd834" style="" class=""/><path id="Shape" d="m44 37v5h-23c-.5522847 0-1-.4477153-1-1v-.73c.0547226-4.2818929-3.2037221-7.8805768-7.47-8.25-2.2084974-.1466352-4.37905217.6282581-5.99537522 2.1403633-1.61632304 1.5121053-2.53395402 3.6262768-2.53462478 5.8396367v1c0 .5522847-.44771525 1-1 1h-2c-.55228475 0-1-.4477153-1-1v-13c0-1.6568542 1.34314575-3 3-3h18c1.6568542 0 3 1.3431458 3 3v8c0 .5522847.4477153 1 1 1z" fill="#ffdc00" data-original="#ffdc00" style="" class=""/><path id="Shape" d="m50 22h-6l-1-16h3z" fill="#00bcd4" data-original="#00bcd4" style="" class=""/><path id="Shape" d="m54 5c0 .55228475-.4477153 1-1 1h-50c-1.65685422-.00000003-2.99999994-1.34314578-2.99999994-3s1.34314572-2.99999997 2.99999994-3h46c1.3260824 0 2.597852.5267842 3.5355339 1.46446609.9376819.9376819 1.4644661 2.20945146 1.4644661 3.53553391z" fill="#db6916" data-original="#f44335" style="" class=""/><path id="Shape" d="m49 0h-3c2.7614237 0 5 2.23857625 5 5 0 .55228475-.4477153 1-1 1h3c.5522847 0 1-.44771525 1-1 0-2.76142375-2.2385763-5-5-5z" fill="#db7100" data-original="#c81e1e" style="" class=""/><path id="Shape" d="m55 24v2.41c-.6322676-.2699128-1.3125301-.4093666-2-.41h-3v-4h3c1.1032019.0032948 1.9967052.8967981 2 2z" fill="#37474f" data-original="#37474f" style="" class=""/><path id="Shape" d="m26 6v13h-1c-.5522847 0-1 .4477153-1 1v8c0-1.6568542-1.3431458-3-3-3h-17v-19z" fill="#db7100" data-original="#c81e1e" style="" class=""/><path id="Shape" d="m37 34v3h-12c-.5522847 0-1-.4477153-1-1v-5h10c1.6568542 0 3 1.3431458 3 3z" fill="#a0522d" data-original="#a0522d" style="" class=""/><path id="Shape" d="m34 31h-3c1.6568542 0 3 1.3431458 3 3v3h3v-3c0-1.6568542-1.3431458-3-3-3z" fill="#783e22" data-original="#783e22" style="" class=""/><path id="Shape" d="m30 22v9h-6v-11c0-.5522847.4477153-1 1-1h2c1.6568542 0 3 1.3431458 3 3z" fill="#a0522d" data-original="#a0522d" style="" class=""/><path id="Shape" d="m27 19h-2c-.1225353.0016347-.2436589.0264023-.357.073 1.3766157.2993615 2.358108 1.5182109 2.357 2.927v9h3v-9c0-1.6568542-1.3431458-3-3-3z" fill="#6d4122" data-original="#6d4122" style="" class=""/><path id="Shape" d="m15.46 42c.975061-1.6808988.6009929-3.8194067-.8867592-5.06951s-3.6587295-1.2501033-5.14648161 0c-1.48775214 1.2501033-1.86182014 3.3886112-.88675919 5.06951h-5.54c.55228475 0 1-.4477153 1-1v-1c.00067076-2.2133599.91830174-4.3275314 2.53462478-5.8396367 1.61632305-1.5121052 3.78687782-2.2869985 5.99537522-2.1403633 4.2662779.3694232 7.5247226 3.9681071 7.47 8.25v.73c0 .5522847.4477153 1 1 1z" fill="#fec108" data-original="#fec108" style="" class=""/></g><path id="Shape" d="m2 44h7.026c.93334052 1.2582223 2.407396 2.0001147 3.974 2.0001147s3.0406595-.7418924 3.974-2.0001147h32.026c.6012549.0005618 1.1886269-.1807044 1.685-.52 1.1462231 1.9914451 3.5041621 2.9427401 5.7114212 2.3042352 2.207259-.6385048 3.6931727-2.7017302 3.5991935-4.9975632-.0939792-2.2958329-1.7435539-4.230708-3.9956147-4.686672v-2.1h2c1.1045695 0 2-.8954305 2-2-.0029098-2.1406804-1.1461135-4.1176608-3-5.188v-1.812c0-1.6568542-1.3431458-3-3-3h-2.22l-3.5-14h5.72c1.1045695 0 2-.8954305 2-2-.0033074-3.31233757-2.6876624-5.99669262-6-6h-46c-2.209139 0-4 1.790861-4 4s1.790861 4 4 4v17c-2.209139 0-4 1.790861-4 4v13c0 .530433.21071368 1.0391408.58578644 1.4142136.37507276.3750727.88378058.5857864 1.41421356.5857864zm11 0c-1.6568542 0-3-1.3431458-3-3s1.3431458-3 3-3 3 1.3431458 3 3-1.3431458 3-3 3zm4.9-2c.4033973-1.9866048-.4326143-4.0201806-2.1166285-5.1486416-1.6840142-1.1284611-3.8827288-1.1284611-5.566743 0-1.68401416 1.128461-2.52002582 3.1620368-2.1166285 5.1486416h-2.10000359l.00000359-1c-.00196254-1.9384844.8006975-3.7908369 2.21643083-5.1150063 1.41573334-1.3241694 3.31754077-2.0013705 5.25156917-1.8699937 3.745819.3287319 6.5989214 3.4993796 6.532 7.259v.726zm10.1-21c1.1045695 0 2 .8954305 2 2v8h-4v-10zm-2 12h9c1.1045695 0 2 .8954305 2 2v2h-11zm9-2h-3v-8c0-2.209139-1.790861-4-4-4v-11h15.061c1.183 18.928.939 12.237.939 29h-5v-2c0-2.209139-1.790861-4-4-4zm14 11h-3v-18h4v17c0 .5522847-.4477153 1-1 1zm9-1c.0063217 1.5272079-1.1356803 2.8154186-2.6526303 2.9922422-1.5169501.1768237-2.9246296-.8141827-3.2697433-2.3018992-.3451137-1.4877166.4825005-2.9972562 1.9223736-3.506343v2.816c0 .5522847.4477153 1 1 1s1-.4477153 1-1v-2.816c1.1943509.4222546 1.9947486 1.5492146 2 2.816zm-4-4.9c-.7276558.1542758-1.4112306.4704292-2 .925v-3.025h2zm-2-4.1v-4h2c2.209139 0 4 1.790861 4 4zm3-7v1.09c-.9954893-.1170583-1.9992838-.1471722-3-.09v-2h2c.5522847 0 1 .4477153 1 1zm-5.28-3h-3.781l-.875-14h1.155zm-47.72-18c0-1.1045695.8954305-2 2-2h46c2.209139 0 4 1.790861 4 4h-50c-1.1045695 0-2-.8954305-2-2zm4 4h20v11c-1.1045695 0-2 .8954305-2 2v4.556c-.6053465-.3599241-1.2957468-.5518554-2-.556h-16zm-4 21c0-1.1045695.8954305-2 2-2h18c1.1045695 0 2 .8954305 2 2v8c0 1.1045695.8954305 2 2 2h18v3h-22v-.726c.0649988-4.812254-3.6039846-8.8546876-8.4-9.255-2.4857927-.166089-4.92922644.7056469-6.74854377 2.4076562-1.81931732 1.7020093-2.85173921 4.0820086-2.85145623 6.5733438v1h-2z" fill="#000000" data-original="#000000" style="" class=""/></g></g></svg>
